# xmcd
#
# Track frame offsets:
#	150
#	15985
#	33705
#	49195
#	66885
#	86860
#	103510
#	119795
#	137065
#	154665
#	176345
#	193685
#	210770
#	227060
#	243075
#	264125
#	280940
#	296580
#	310885
#
# Disc length: 4407 seconds
#
# Revision: 0
# Processed by: cddbd v1.5.1PL2 Copyright (c) Steve Scherf et al.
# Submitted via: EasyCDDAExtractor 9.0.0.1
#
DISCID=07113513
DTITLE=Various Artist - CD1
DYEAR=1900
DGENRE=
TTITLE0=N´Sync - Tearin´ Up My Heart
TTITLE1=Die Fantastischen Vier - Der Picknicker
TTITLE2=Sounlovers - People
TTITLE3=GS Incorporated - Stairway To Heaven
TTITLE4=DJ Bobo - Respect Yourself
TTITLE5=Selig - Knockin´ On Heaven´s Door
TTITLE6=DJ Dado - Shine On You Crazy Diamond
TTITLE7=DJ Quicksilver - Bellissima
TTITLE8=Apollo Four Forty - Ain´t Talking About Dub
TTITLE9=Bee Gees - Alone
TTITLE10=Sabrina Setlur - Du Liebst Mich Nicht
TTITLE11=Wayne Samuels - I´m A Callboy
TTITLE12=Sista Sista - We Like To Dance (na-na-na)
TTITLE13=Gala - Freed From Desire
TTITLE14=Shaquille O-Neal - You Can´t Stop The Reign
TTITLE15=Spice Girls - Who Do You Think You Are
TTITLE16=Object One - Ping Pong
TTITLE17=The Kelly Family - Feel In Love With An Alien
TTITLE18=No Doubt - Don´t Speak
EXTD=
EXTT0=
EXTT1=
EXTT2=
EXTT3=
EXTT4=
EXTT5=
EXTT6=
EXTT7=
EXTT8=
EXTT9=
EXTT10=
EXTT11=
EXTT12=
EXTT13=
EXTT14=
EXTT15=
EXTT16=
EXTT17=
EXTT18=
PLAYORDER=
